Coordinates
nRows=282
nColumns=2
inDegrees=yes
endheader
time	ankle_angle_r	
4.09147	  9.613037	
4.12474	  9.735107	
4.158	  9.689331	
4.19126	  9.658813	
4.22453	  9.689331	
4.25779	  9.582520	
4.29106	  9.658813	
4.32432	  9.689331	
4.35758	  9.628296	
4.39085	  9.567261	
4.42411	  9.689331	
4.45738	  9.597778	
4.49064	  9.613037	
4.5239	  9.658813	
4.55717	  9.567261	
4.59043	  9.613037	
4.6237	  9.689331	
4.65696	  9.613037	
4.69022	  9.674072	
4.72349	  9.674072	
4.75675	  9.582520	
4.79002	  9.674072	
4.82328	  9.689331	
4.85654	  9.643555	
4.88981	  9.704590	
4.92307	  9.704590	
4.95634	  9.613037	
4.9896	  9.704590	
5.02286	  9.704590	
5.05613	  9.658813	
5.08939	  9.765625	
5.12266	  9.811401	
5.15592	  9.674072	
5.18918	  9.796143	
5.22245	  9.826660	
5.25571	  9.689331	
5.28898	  9.796143	
5.32224	  9.780884	
5.3555	  9.704590	
5.38877	  9.719849	
5.42203	  9.826660	
5.4553	  9.735107	
5.48856	  9.750366	
5.52182	  9.750366	
5.55509	  9.704590	
5.58835	  9.780884	
5.62162	  9.780884	
5.65488	  9.689331	
5.68814	  9.750366	
5.72141	  9.750366	
5.75467	  9.704590	
5.78794	  9.719849	
5.8212	  9.643555	
5.85446	  9.613037	
5.88773	  9.704590	
5.92099	  9.582520	
5.95426	  9.597778	
5.98752	  9.674072	
6.02078	  9.567261	
6.05405	  9.613037	
6.08731	  9.597778	
6.12058	  9.567261	
6.15384	  9.567261	
6.1871	  9.628296	
6.22037	  9.521484	
6.25363	  9.567261	
6.2869	  9.674072	
6.32016	  9.567261	
6.35342	  9.582520	
6.38669	  9.674072	
6.41995	  9.552002	
6.45322	  9.628296	
6.48648	  9.719849	
6.51974	  9.628296	
6.55301	  9.628296	
6.58627	  9.765625	
6.61954	  9.628296	
6.6528	  9.628296	
6.68606	  9.750366	
6.71933	  9.674072	
6.75259	  9.704590	
6.78586	  9.765625	
6.81912	  9.643555	
6.85238	  9.613037	
6.88565	  9.704590	
6.91891	  9.674072	
6.95218	  9.643555	
6.98544	  9.719849	
7.0187	  9.674072	
7.05197	  9.643555	
7.08523	  9.796143	
7.1185	  9.674072	
7.15176	  9.765625	
7.18502	  9.719849	
7.21829	  9.719849	
7.25155	  9.765625	
7.28482	  9.796143	
7.31808	  9.704590	
7.35134	  9.765625	
7.38461	  9.735107	
7.41787	  9.658813	
7.45114	  9.765625	
7.4844	  9.826660	
7.51766	  9.735107	
7.55093	  9.780884	
7.58419	  9.841919	
7.61746	  9.719849	
7.65072	  9.780884	
7.68398	  9.780884	
7.71725	  9.674072	
7.75051	  9.796143	
7.78378	  9.841919	
7.81704	  9.719849	
7.8503	  9.826660	
7.88357	  9.796143	
7.91683	  9.689331	
7.9501	  9.765625	
7.98336	  9.811401	
8.01662	  9.689331	
8.04989	  9.765625	
8.08315	  9.780884	
8.11642	  9.689331	
8.14968	  9.750366	
8.18294	  9.796143	
8.21621	  9.735107	
8.24947	  9.780884	
8.28274	  9.750366	
8.316	  9.689331	
8.34926	  9.796143	
8.38253	  9.719849	
8.41579	  9.704590	
8.44906	  9.765625	
8.48232	  9.704590	
8.51558	  9.643555	
8.54885	  9.735107	
8.58211	  9.674072	
8.61538	  9.704590	
8.64864	  9.689331	
8.6819	  9.567261	
8.71517	  9.552002	
8.74843	  9.628296	
8.7817	  9.597778	
8.81496	  9.552002	
8.84822	  9.643555	
8.88149	  9.536743	
8.91475	  9.536743	
8.94802	  9.613037	
8.98128	  9.552002	
9.01454	  9.521484	
9.04781	  9.597778	
9.08107	  9.567261	
9.11434	  9.552002	
9.1476	  9.643555	
9.18086	  9.597778	
9.21413	  9.536743	
9.24739	  9.643555	
9.28066	  9.613037	
9.31392	  9.552002	
9.34718	  9.643555	
9.38045	  9.582520	
9.41371	  9.567261	
9.44698	  9.643555	
9.48024	  9.597778	
9.5135	  9.643555	
9.54677	  9.780884	
9.58003	  9.658813	
9.6133	  9.719849	
9.64656	  9.719849	
9.67982	  9.750366	
9.71309	  9.750366	
9.74635	  9.780884	
9.77962	  9.719849	
9.81288	  9.841919	
9.84614	  9.826660	
9.87941	  9.780884	
9.91267	  9.811401	
9.94594	  9.857178	
9.9792	  9.750366	
10.0125	  9.811401	
10.0457	  9.841919	
10.079	  9.674072	
10.1123	  9.780884	
10.1455	  9.750366	
10.1788	  9.704590	
10.212	  9.689331	
10.2453	  9.750366	
10.2786	  9.674072	
10.3118	  9.689331	
10.3451	  9.750366	
10.3784	  9.643555	
10.4116	  9.658813	
10.4449	  9.735107	
10.4782	  9.597778	
10.5114	  9.643555	
10.5447	  9.674072	
10.578	  9.597778	
10.6112	  9.674072	
10.6445	  9.674072	
10.6777	  9.613037	
10.711	  9.643555	
10.7443	  9.674072	
10.7775	  9.628296	
10.8108	  9.658813	
10.8441	  9.613037	
10.8773	  9.582520	
10.9106	  9.643555	
10.9439	  9.536743	
10.9771	  9.582520	
11.0104	  9.689331	
11.0436	  9.658813	
11.0769	  9.643555	
11.1102	  9.719849	
11.1434	  9.643555	
11.1767	  9.674072	
11.21	  9.765625	
11.2432	  9.643555	
11.2765	  9.628296	
11.3098	  9.735107	
11.343	  9.628296	
11.3763	  9.689331	
11.4096	  9.750366	
11.4428	  9.658813	
11.4761	  9.658813	
11.5093	  9.811401	
11.5426	  9.735107	
11.5759	  9.689331	
11.6091	  9.796143	
11.6424	  9.735107	
11.6757	  9.628296	
11.7089	  9.750366	
11.7422	  9.674072	
11.7755	  9.613037	
11.8087	  9.765625	
11.842	  9.750366	
11.8752	  9.628296	
11.9085	  9.750366	
11.9418	  9.674072	
11.975	  9.719849	
12.0083	  9.750366	
12.0416	  9.750366	
12.0748	  9.750366	
12.1081	  9.735107	
12.1414	  9.658813	
12.1746	  9.796143	
12.2079	  9.765625	
12.2412	  9.750366	
12.2744	  9.765625	
12.3077	  9.765625	
12.3409	  9.704590	
12.3742	  9.826660	
12.4075	  9.826660	
12.4407	  9.719849	
12.474	  9.765625	
12.5073	  9.826660	
12.5405	  9.735107	
12.5738	  9.735107	
12.6071	  9.780884	
12.6403	  9.765625	
12.6736	  9.811401	
12.7068	  9.796143	
12.7401	  9.719849	
12.7734	  9.780884	
12.8066	  9.857178	
12.8399	  9.719849	
12.8732	  9.765625	
12.9064	  9.796143	
12.9397	  9.689331	
12.973	  9.765625	
13.0062	  9.750366	
13.0395	  9.704590	
13.0728	  9.765625	
13.106	  9.735107	
13.1393	  9.597778	
13.1725	  9.689331	
13.2058	  9.613037	
13.2391	  9.613037	
13.2723	  9.658813	
13.3056	  9.597778	
13.3389	  9.567261	
13.3721	  9.628296	
13.4054	  9.567261	
13.4387	  9.597778	
